<?xml version="1.0" standalone="no"?>
<!DOCTYPE svg PUBLIC "-//W3C//DTD SVG 1.1//EN" 
"http://www.w3.org/Graphics/SVG/1.1/DTD/svg11.dtd">
<svg width="800" height="313" version="1.1" xmlns="http://www.w3.org/2000/svg">
 <g transform="scale(211) matrix(1 0 0 -1 0 1.48)">
  <g style="part:0">
    <polyline points= "0.442720, 1.129099 0.403036, 1.106376 0.365339, 1.080491 
                       0.329880, 1.051616 0.296894, 1.019945 0.266602, 0.985688 
                       0.239207, 0.949075 0.214889, 0.910348 0.193812, 0.869766 
                       0.187842, 0.868140 0.182031, 0.866013 0.176422, 0.863400 
                       0.171055, 0.860320 0.165969, 0.856796 0.161201, 0.852853 
                       0.156784, 0.848518 0.152752, 0.843825 0.149133, 0.838806 
                       0.145953, 0.833497 0.143235, 0.827938 0.141000, 0.822169 
                       0.139262, 0.816230 0.138035, 0.810165 0.137327, 0.804018 
                       0.137144, 0.797832 0.137487, 0.791654 0.138353, 0.785527 
                       0.139736, 0.779496 0.141627, 0.773604 0.144011, 0.767894 
                       0.146871, 0.762407 0.150187, 0.757182 0.153934, 0.752259 
                       0.145621, 0.704691 0.141436, 0.656584 0.141411, 0.608295 
                       0.145545, 0.560184 0.153809, 0.512608 0.166140, 0.465920 
                       0.182448, 0.420469 0.202610, 0.376591 0.226477, 0.334613 
                       0.253872, 0.294847 0.284590, 0.257588 0.318404, 0.223115 
                       0.318131, 0.216957 0.318379, 0.210798 0.319148, 0.204682 
                       0.320431, 0.198653 0.322219, 0.192754 0.324501, 0.187027 
                       0.327258, 0.181514 0.330472, 0.176254 0.334119, 0.171285 
                       0.338174, 0.166642 0.342607, 0.162359 0.347386, 0.158466 
                       0.352478, 0.154992 0.357845, 0.151960 0.363449, 0.149394 
                       0.369251, 0.147310 0.375208, 0.145725 0.381277, 0.144650 
                       0.387416, 0.144092 0.393580, 0.144055 0.399725, 0.144540 
                       0.405807, 0.145542 0.411782, 0.147056 0.417608, 0.149070 
                       0.460301, 0.126447 0.504784, 0.107588 0.550727, 0.092633 
                       0.597788, 0.081694 0.645617, 0.074852 0.693858, 0.072158 
                       0.742152, 0.073632 0.790138, 0.079263 0.837461, 0.089009 
                       0.883767, 0.102798 0.928713, 0.120526 0.971964, 0.142063 
                       0.977737, 0.139903 0.983672, 0.138239 0.989727, 0.137082 
                       0.995857, 0.136443 1.002020, 0.136324 1.008171, 0.136726 
                       1.014266, 0.137648 1.020261, 0.139082 1.026113, 0.141018 
                       1.031781, 0.143442 1.037223, 0.146337 1.042401, 0.149682 
                       1.047277, 0.153453 1.051817, 0.157622 1.055987, 0.162161 
                       1.059759, 0.167037 1.063105, 0.172214 1.066001, 0.177655 
                       1.068426, 0.183322 1.070363, 0.189174 1.071798, 0.195169 
                       1.072721, 0.201264 1.073125, 0.207414 1.073008, 0.213577 
                       1.107682, 0.247185 1.139332, 0.283655 1.167723, 0.322716 
                       1.192644, 0.364077 1.213908, 0.407432 1.231359, 0.452457 
                       1.244867, 0.498818 1.254331, 0.546170 1.259680, 0.594161 
                       1.260875, 0.642435 1.257907, 0.690633 1.250798, 0.738395 
                       1.254669, 0.743223 1.258116, 0.748362 1.261114, 0.753775 
                       1.263642, 0.759423 1.265681, 0.765265 1.267216, 0.771259 
                       1.268237, 0.777362 1.268736, 0.783530 1.268709, 0.789718 
                       1.268157, 0.795881 1.267083, 0.801975 1.265496, 0.807956 
                       1.263407, 0.813780 1.260831, 0.819406 1.257786, 0.824793 
                       1.254295, 0.829902 1.250382, 0.834696 1.246077, 0.839141 
                       1.241410, 0.843203 1.236414, 0.846855 1.231127, 0.850070 
                       1.225586, 0.852823 1.219831, 0.855097 1.213903, 0.856873 
                       1.195102, 0.895657 1.173373, 0.932880 1.148847, 0.968321 
                       1.121667, 1.001772 1.091995, 1.033033 1.060008, 1.061920 
                       1.025893, 1.088261 0.989854, 1.111901 0.999192, 1.120171 
                       0.704653, 1.455571 0.431457, 1.139073 0.442720, 1.129099 
                       " style="fill:none; stroke:blue; stroke-width:0.004733; outline:0"/>
    <polyline points= "0.253001, 0.798773 0.252842, 0.802474 0.252365, 0.806149 
                       0.251574, 0.809768 0.250474, 0.813307 0.249075, 0.816737 
                       0.247386, 0.820035 0.245419, 0.823175 0.243190, 0.826135 
                       0.240715, 0.828892 0.238012, 0.831426 0.235101, 0.833718 
                       0.232004, 0.835752 0.228743, 0.837512 0.225343, 0.838985 
                       0.221829, 0.840160 0.218227, 0.841029 0.214564, 0.841585 
                       0.210867, 0.841824 0.207162, 0.841744 0.203479, 0.841346 
                       0.199843, 0.840633 0.196282, 0.839610 0.192822, 0.838285 
                       0.189488, 0.836667 0.186306, 0.834768 0.183300, 0.832604 
                       0.180490, 0.830188 0.177898, 0.827540 0.175544, 0.824679 
                       0.173444, 0.821626 0.171615, 0.818404 0.170069, 0.815037 
                       0.168818, 0.811549 0.167872, 0.807967 0.167237, 0.804317 
                       0.166919, 0.800625 0.166919, 0.796920 0.167237, 0.793229 
                       0.167872, 0.789578 0.168818, 0.785996 0.170069, 0.782508 
                       0.171615, 0.779141 0.173444, 0.775919 0.175544, 0.772866 
                       0.177898, 0.770005 0.180490, 0.767357 0.183300, 0.764942 
                       0.186306, 0.762777 0.189488, 0.760878 0.192822, 0.759260 
                       0.196282, 0.757935 0.199843, 0.756912 0.203479, 0.756199 
                       0.207162, 0.755801 0.210867, 0.755721 0.214564, 0.755960 
                       0.218227, 0.756516 0.221829, 0.757385 0.225343, 0.758560 
                       0.228743, 0.760033 0.232004, 0.761793 0.235101, 0.763827 
                       0.238012, 0.766119 0.240715, 0.768653 0.243190, 0.771410 
                       0.245419, 0.774370 0.247386, 0.777510 0.249075, 0.780808 
                       0.250474, 0.784238 0.251574, 0.787777 0.252365, 0.791396 
                       0.252842, 0.795071 0.253001, 0.798773 " style="fill:none; stroke:red; stroke-width:0.004733; cut:12"/>
    <polyline points= "0.846169, 1.173021 0.704653, 1.350349 0.566196, 1.175730 
                       0.605769, 1.184035 0.645839, 1.189463 0.649358, 1.194570 
                       0.653299, 1.199359 0.657634, 1.203796 0.662331, 1.207847 
                       0.667355, 1.211483 0.672671, 1.214679 0.678240, 1.217411 
                       0.684020, 1.219659 0.689971, 1.221406 0.696050, 1.222641 
                       0.702211, 1.223354 0.708411, 1.223540 0.714604, 1.223197 
                       0.720745, 1.222329 0.726790, 1.220941 0.732695, 1.219044 
                       0.738417, 1.216650 0.743915, 1.213779 0.749148, 1.210450 
                       0.754079, 1.206687 0.758672, 1.202519 0.762893, 1.197974 
                       0.766712, 1.193087 0.770102, 1.187893 0.808393, 1.181774 
                       0.846169, 1.173021 " style="fill:none; stroke:red; stroke-width:0.004733; cut:17"/>
    <polyline points= "1.043404, 0.209107 1.043244, 0.212808 1.042767, 0.216483 
                       1.041976, 0.220102 1.040877, 0.223641 1.039477, 0.227072 
                       1.037788, 0.230369 1.035822, 0.233509 1.033593, 0.236469 
                       1.031117, 0.239226 1.028414, 0.241760 1.025503, 0.244052 
                       1.022406, 0.246086 1.019145, 0.247846 1.015746, 0.249319 
                       1.012232, 0.250494 1.008630, 0.251363 1.004967, 0.251919 
                       1.001269, 0.252158 0.997565, 0.252078 0.993881, 0.251680 
                       0.990245, 0.250967 0.986684, 0.249944 0.983224, 0.248619 
                       0.979891, 0.247001 0.976709, 0.245103 0.973702, 0.242938 
                       0.970892, 0.240522 0.968301, 0.237874 0.965946, 0.235013 
                       0.963847, 0.231961 0.962017, 0.228739 0.960471, 0.225371 
                       0.959221, 0.221883 0.958275, 0.218301 0.957640, 0.214651 
                       0.957321, 0.210959 0.957321, 0.207254 0.957640, 0.203563 
                       0.958275, 0.199912 0.959221, 0.196330 0.960471, 0.192842 
                       0.962017, 0.189475 0.963847, 0.186253 0.965946, 0.183200 
                       0.968301, 0.180339 0.970892, 0.177691 0.973702, 0.175276 
                       0.976709, 0.173111 0.979891, 0.171212 0.983224, 0.169595 
                       0.986684, 0.168269 0.990245, 0.167246 0.993881, 0.166533 
                       0.997565, 0.166135 1.001269, 0.166056 1.004967, 0.166295 
                       1.008630, 0.166851 1.012232, 0.167719 1.015746, 0.168895 
                       1.019145, 0.170368 1.022406, 0.172127 1.025503, 0.174161 
                       1.028414, 0.176453 1.031117, 0.178987 1.033593, 0.181744 
                       1.035822, 0.184704 1.037788, 0.187844 1.039477, 0.191142 
                       1.040877, 0.194573 1.041976, 0.198111 1.042767, 0.201731 
                       1.043244, 0.205405 1.043404, 0.209107 " style="fill:none; stroke:red; stroke-width:0.004733; cut:20"/>
    <polyline points= "0.433994, 0.216809 0.433834, 0.220511 0.433357, 0.224185 
                       0.432566, 0.227805 0.431467, 0.231343 0.430067, 0.234774 
                       0.428378, 0.238072 0.426412, 0.241212 0.424183, 0.244172 
                       0.421707, 0.246929 0.419004, 0.249463 0.416093, 0.251755 
                       0.412996, 0.253788 0.409735, 0.255548 0.406336, 0.257021 
                       0.402822, 0.258196 0.399220, 0.259065 0.395557, 0.259621 
                       0.391859, 0.259860 0.388155, 0.259781 0.384471, 0.259383 
                       0.380835, 0.258670 0.377274, 0.257647 0.373814, 0.256321 
                       0.370481, 0.254703 0.367299, 0.252805 0.364292, 0.250640 
                       0.361482, 0.248225 0.358891, 0.245577 0.356536, 0.242716 
                       0.354437, 0.239663 0.352607, 0.236441 0.351061, 0.233074 
                       0.349811, 0.229586 0.348865, 0.226004 0.348230, 0.222353 
                       0.347912, 0.218662 0.347912, 0.214957 0.348230, 0.211265 
                       0.348865, 0.207615 0.349811, 0.204032 0.351061, 0.200545 
                       0.352607, 0.197177 0.354437, 0.193955 0.356536, 0.190903 
                       0.358891, 0.188042 0.361482, 0.185394 0.364292, 0.182978 
                       0.367299, 0.180813 0.370481, 0.178915 0.373814, 0.177297 
                       0.377274, 0.175972 0.380835, 0.174949 0.384471, 0.174236 
                       0.388155, 0.173838 0.391859, 0.173758 0.395557, 0.173997 
                       0.399220, 0.174553 0.402822, 0.175422 0.406336, 0.176597 
                       0.409735, 0.178070 0.412996, 0.179830 0.416093, 0.181863 
                       0.419004, 0.184156 0.421707, 0.186690 0.424183, 0.189447 
                       0.426412, 0.192406 0.428378, 0.195547 0.430067, 0.198844 
                       0.431467, 0.202275 0.432566, 0.205813 0.433357, 0.209433 
                       0.433834, 0.213107 0.433994, 0.216809 " style="fill:none; stroke:red; stroke-width:0.004733; cut:25"/>
    <polyline points= "1.142220, 0.835396 1.123832, 0.871314 1.102526, 0.905583 
                       1.078450, 0.937966 1.051769, 0.968239 1.022668, 0.996194 
                       0.991348, 1.021637 0.958025, 1.044393 0.922928, 1.064306 
                       0.886300, 1.081237 0.848393, 1.095070 0.809469, 1.105710 
                       0.769796, 1.113084 0.766303, 1.107833 0.762369, 1.102905 
                       0.758023, 1.098335 0.753298, 1.094159 0.748230, 1.090407 
                       0.742856, 1.087108 0.737216, 1.084286 0.731353, 1.081963 
                       0.725312, 1.080156 0.719136, 1.078878 0.712874, 1.078140 
                       0.706570, 1.077947 0.700274, 1.078299 0.694032, 1.079196 
                       0.687891, 1.080629 0.681897, 1.082588 0.676095, 1.085058 
                       0.670529, 1.088022 0.665239, 1.091456 0.660267, 1.095334 
                       0.655649, 1.099629 0.651421, 1.104307 0.647612, 1.109333 
                       0.644253, 1.114670 0.604407, 1.108302 0.565226, 1.098649 
                       0.526982, 1.085779 0.489937, 1.069778 0.454348, 1.050759 
                       0.420460, 1.028852 0.388507, 1.004209 0.358709, 0.976999 
                       0.331272, 0.947410 0.306385, 0.915646 0.284220, 0.881926 
                       0.264930, 0.846484 0.268859, 0.841536 0.272346, 0.836266 
                       0.275362, 0.830714 0.277885, 0.824921 0.279896, 0.818931 
                       0.281381, 0.812789 0.282327, 0.806542 0.282728, 0.800236 
                       0.282581, 0.793919 0.281886, 0.787639 0.280650, 0.781443 
                       0.278881, 0.775377 0.276593, 0.769487 0.273802, 0.763818 
                       0.270531, 0.758412 0.266803, 0.753310 0.262647, 0.748551 
                       0.258094, 0.744170 0.253178, 0.740200 0.247936, 0.736672 
                       0.242408, 0.733611 0.236636, 0.731041 0.230663, 0.728982 
                       0.224533, 0.727448 0.218267, 0.687581 0.215332, 0.647331 
                       0.215747, 0.606977 0.219509, 0.566797 0.226594, 0.527067 
                       0.236951, 0.488063 0.250510, 0.450052 0.267176, 0.413298 
                       0.286836, 0.378054 0.309352, 0.344563 0.334570, 0.313057 
                       0.362316, 0.283752 0.368248, 0.285987 0.374352, 0.287698 
                       0.380581, 0.288872 0.386888, 0.289499 0.393227, 0.289575 
                       0.399548, 0.289100 0.405803, 0.288077 0.411946, 0.286513 
                       0.417930, 0.284421 0.423709, 0.281816 0.429239, 0.278719 
                       0.434479, 0.275152 0.439389, 0.271143 0.443932, 0.266722 
                       0.448073, 0.261923 0.451780, 0.256781 0.455027, 0.251337 
                       0.457787, 0.245631 0.460041, 0.239706 0.461771, 0.233608 
                       0.462963, 0.227382 0.463610, 0.221077 0.463706, 0.214739 
                       0.463250, 0.208416 0.499239, 0.190151 0.536620, 0.174935 
                       0.575134, 0.162875 0.614517, 0.154052 0.654496, 0.148529 
                       0.694796, 0.146344 0.735138, 0.147510 0.775244, 0.152021 
                       0.814837, 0.159845 0.853644, 0.170928 0.891398, 0.185194 
                       0.927837, 0.202544 0.927541, 0.208876 0.927797, 0.215210 
                       0.928602, 0.221497 0.929952, 0.227690 0.931835, 0.233743 
                       0.934238, 0.239609 0.937142, 0.245243 0.940525, 0.250604 
                       0.944361, 0.255650 0.948622, 0.260343 0.953275, 0.264648 
                       0.958285, 0.268532 0.963613, 0.271965 0.969220, 0.274921 
                       0.975063, 0.277379 0.981098, 0.279319 0.987278, 0.280727 
                       0.993558, 0.281592 0.999889, 0.281908 1.006223, 0.281671 
                       1.012513, 0.280885 1.018710, 0.279554 1.024769, 0.277689 
                       1.030642, 0.275305 1.059120, 0.303899 1.085126, 0.334758 
                       1.108482, 0.367669 1.129026, 0.402405 1.146616, 0.438726 
                       1.161131, 0.476382 1.172471, 0.515112 1.180557, 0.554650 
                       1.185334, 0.594722 1.186769, 0.635053 1.184852, 0.675364 
                       1.179595, 0.715376 1.173507, 0.717065 1.167587, 0.719275 
                       1.161881, 0.721990 1.156433, 0.725189 1.151282, 0.728849 
                       1.146468, 0.732942 1.142027, 0.737436 1.137992, 0.742299 
                       1.134395, 0.747494 1.131261, 0.752980 1.128615, 0.758718 
                       1.126476, 0.764664 1.124861, 0.770772 1.123782, 0.776998 
                       1.123246, 0.783294 1.123259, 0.789613 1.123819, 0.795906 
                       1.124923, 0.802128 1.126562, 0.808230 1.128724, 0.814167 
                       1.131393, 0.819894 1.134548, 0.825369 1.138167, 0.830549 
                       1.142220, 0.835396 " style="fill:none; stroke:red; stroke-width:0.004733; cut:26"/>
    <polyline points= "0.750552, 1.150743 0.750392, 1.154445 0.749915, 1.158119 
                       0.749124, 1.161739 0.748025, 1.165277 0.746625, 1.168708 
                       0.744936, 1.172006 0.742970, 1.175146 0.740741, 1.178106 
                       0.738265, 1.180863 0.735562, 1.183397 0.732651, 1.185689 
                       0.729554, 1.187723 0.726293, 1.189482 0.722893, 1.190955 
                       0.719380, 1.192131 0.715778, 1.192999 0.712115, 1.193555 
                       0.708417, 1.193794 0.704713, 1.193715 0.701029, 1.193317 
                       0.697393, 1.192604 0.693832, 1.191581 0.690372, 1.190255 
                       0.687039, 1.188638 0.683857, 1.186739 0.680850, 1.184574 
                       0.678040, 1.182159 0.675449, 1.179511 0.673094, 1.176650 
                       0.670995, 1.173597 0.669165, 1.170375 0.667619, 1.167008 
                       0.666369, 1.163520 0.665423, 1.159938 0.664788, 1.156287 
                       0.664469, 1.152596 0.664469, 1.148891 0.664788, 1.145199 
                       0.665423, 1.141549 0.666369, 1.137967 0.667619, 1.134479 
                       0.669165, 1.131111 0.670995, 1.127889 0.673094, 1.124837 
                       0.675449, 1.121976 0.678040, 1.119328 0.680850, 1.116912 
                       0.683857, 1.114747 0.687039, 1.112849 0.690372, 1.111231 
                       0.693832, 1.109906 0.697393, 1.108883 0.701029, 1.108170 
                       0.704713, 1.107772 0.708417, 1.107692 0.712115, 1.107931 
                       0.715778, 1.108487 0.719380, 1.109356 0.722893, 1.110531 
                       0.726293, 1.112004 0.729554, 1.113764 0.732651, 1.115798 
                       0.735562, 1.118090 0.738265, 1.120624 0.740741, 1.123381 
                       0.742970, 1.126340 0.744936, 1.129481 0.746625, 1.132778 
                       0.748025, 1.136209 0.749124, 1.139748 0.749915, 1.143367 
                       0.750392, 1.147042 0.750552, 1.150743 " style="fill:none; stroke:red; stroke-width:0.004733; cut:27"/>
    <polyline points= "1.239047, 0.786310 1.238888, 0.790011 1.238411, 0.793686 
                       1.237620, 0.797306 1.236520, 0.800844 1.235121, 0.804275 
                       1.233432, 0.807572 1.231465, 0.810713 1.229236, 0.813672 
                       1.226761, 0.816429 1.224058, 0.818963 1.221147, 0.821256 
                       1.218049, 0.823289 1.214789, 0.825049 1.211389, 0.826522 
                       1.207875, 0.827697 1.204273, 0.828566 1.200610, 0.829122 
                       1.196913, 0.829361 1.193208, 0.829281 1.189525, 0.828883 
                       1.185889, 0.828170 1.182328, 0.827147 1.178868, 0.825822 
                       1.175534, 0.824204 1.172352, 0.822306 1.169345, 0.820141 
                       1.166536, 0.817725 1.163944, 0.815077 1.161590, 0.812216 
                       1.159490, 0.809164 1.157661, 0.805942 1.156115, 0.802574 
                       1.154864, 0.799087 1.153918, 0.795504 1.153283, 0.791854 
                       1.152965, 0.788162 1.152965, 0.784457 1.153283, 0.780766 
                       1.153918, 0.777115 1.154864, 0.773533 1.156115, 0.770045 
                       1.157661, 0.766678 1.159490, 0.763456 1.161590, 0.760403 
                       1.163944, 0.757542 1.166536, 0.754894 1.169345, 0.752479 
                       1.172352, 0.750314 1.175534, 0.748415 1.178868, 0.746798 
                       1.182328, 0.745472 1.185889, 0.744449 1.189525, 0.743736 
                       1.193208, 0.743338 1.196913, 0.743259 1.200610, 0.743498 
                       1.204273, 0.744054 1.207875, 0.744922 1.211389, 0.746098 
                       1.214789, 0.747571 1.218049, 0.749330 1.221147, 0.751364 
                       1.224058, 0.753656 1.226761, 0.756190 1.229236, 0.758947 
                       1.231465, 0.761907 1.233432, 0.765047 1.235121, 0.768345 
                       1.236520, 0.771776 1.237620, 0.775314 1.238411, 0.778934 
                       1.238888, 0.782608 1.239047, 0.786310 " style="fill:none; stroke:red; stroke-width:0.004733; cut:28"/>
  </g>
  <g style="part:1">
    <polyline points= "1.689693, 1.129099 1.650009, 1.106376 1.612312, 1.080491 
                       1.576853, 1.051616 1.543867, 1.019945 1.513575, 0.985688 
                       1.486179, 0.949075 1.461862, 0.910348 1.440785, 0.869766 
                       1.434815, 0.868140 1.429004, 0.866013 1.423395, 0.863400 
                       1.418028, 0.860320 1.412942, 0.856796 1.408173, 0.852853 
                       1.403757, 0.848518 1.399725, 0.843825 1.396106, 0.838806 
                       1.392926, 0.833497 1.390208, 0.827938 1.387972, 0.822169 
                       1.386235, 0.816230 1.385008, 0.810165 1.384300, 0.804018 
                       1.384117, 0.797832 1.384460, 0.791654 1.385326, 0.785527 
                       1.386709, 0.779496 1.388600, 0.773604 1.390984, 0.767894 
                       1.393844, 0.762407 1.397160, 0.757182 1.400907, 0.752259 
                       1.392594, 0.704691 1.388409, 0.656584 1.388383, 0.608295 
                       1.392518, 0.560184 1.400782, 0.512608 1.413113, 0.465920 
                       1.429421, 0.420469 1.449583, 0.376591 1.473450, 0.334613 
                       1.500845, 0.294847 1.531563, 0.257588 1.565377, 0.223115 
                       1.565103, 0.216957 1.565352, 0.210798 1.566120, 0.204682 
                       1.567404, 0.198653 1.569192, 0.192754 1.571474, 0.187027 
                       1.574231, 0.181514 1.577445, 0.176254 1.581092, 0.171285 
                       1.585147, 0.166642 1.589580, 0.162359 1.594359, 0.158466 
                       1.599451, 0.154992 1.604818, 0.151960 1.610422, 0.149394 
                       1.616224, 0.147310 1.622181, 0.145725 1.628250, 0.144650 
                       1.634389, 0.144092 1.640553, 0.144055 1.646698, 0.144540 
                       1.652780, 0.145542 1.658755, 0.147056 1.664581, 0.149070 
                       1.707274, 0.126447 1.751757, 0.107588 1.797700, 0.092633 
                       1.844761, 0.081694 1.892590, 0.074852 1.940831, 0.072158 
                       1.989124, 0.073632 2.037111, 0.079263 2.084434, 0.089009 
                       2.130740, 0.102798 2.175686, 0.120526 2.218936, 0.142063 
                       2.224710, 0.139903 2.230645, 0.138239 2.236700, 0.137082 
                       2.242830, 0.136443 2.248993, 0.136324 2.255144, 0.136726 
                       2.261239, 0.137648 2.267234, 0.139082 2.273086, 0.141018 
                       2.278754, 0.143442 2.284196, 0.146337 2.289374, 0.149682 
                       2.294250, 0.153453 2.298790, 0.157622 2.302960, 0.162161 
                       2.306732, 0.167037 2.310078, 0.172214 2.312974, 0.177655 
                       2.315399, 0.183322 2.317336, 0.189174 2.318771, 0.195169 
                       2.319694, 0.201264 2.320098, 0.207414 2.319981, 0.213577 
                       2.354655, 0.247185 2.386305, 0.283655 2.414696, 0.322716 
                       2.439617, 0.364077 2.460881, 0.407432 2.478332, 0.452457 
                       2.491840, 0.498818 2.501303, 0.546170 2.506653, 0.594161 
                       2.507848, 0.642435 2.504880, 0.690633 2.497771, 0.738395 
                       2.501642, 0.743223 2.505089, 0.748362 2.508087, 0.753775 
                       2.510615, 0.759423 2.512654, 0.765265 2.514189, 0.771259 
                       2.515210, 0.777362 2.515708, 0.783530 2.515682, 0.789718 
                       2.515130, 0.795881 2.514056, 0.801975 2.512469, 0.807956 
                       2.510380, 0.813780 2.507804, 0.819406 2.504759, 0.824793 
                       2.501268, 0.829902 2.497355, 0.834696 2.493050, 0.839141 
                       2.488383, 0.843203 2.483387, 0.846855 2.478100, 0.850070 
                       2.472559, 0.852823 2.466804, 0.855097 2.460876, 0.856873 
                       2.442075, 0.895657 2.420346, 0.932880 2.395820, 0.968321 
                       2.368640, 1.001772 2.338968, 1.033033 2.306980, 1.061920 
                       2.272866, 1.088261 2.236826, 1.111901 2.246165, 1.120171 
                       1.951626, 1.455571 1.678430, 1.139073 1.689693, 1.129099 
                       " style="fill:none; stroke:blue; stroke-width:0.004733; outline:1"/>
    <polyline points= "1.997525, 1.150743 1.997365, 1.154445 1.996888, 1.158119 
                       1.996097, 1.161739 1.994998, 1.165277 1.993598, 1.168708 
                       1.991909, 1.172006 1.989943, 1.175146 1.987713, 1.178106 
                       1.985238, 1.180863 1.982535, 1.183397 1.979624, 1.185689 
                       1.976527, 1.187723 1.973266, 1.189482 1.969866, 1.190955 
                       1.966353, 1.192131 1.962751, 1.192999 1.959087, 1.193555 
                       1.955390, 1.193794 1.951686, 1.193715 1.948002, 1.193317 
                       1.944366, 1.192604 1.940805, 1.191581 1.937345, 1.190255 
                       1.934012, 1.188638 1.930830, 1.186739 1.927823, 1.184574 
                       1.925013, 1.182159 1.922422, 1.179511 1.920067, 1.176650 
                       1.917967, 1.173597 1.916138, 1.170375 1.914592, 1.167008 
                       1.913342, 1.163520 1.912395, 1.159938 1.911761, 1.156287 
                       1.911442, 1.152596 1.911442, 1.148891 1.911761, 1.145199 
                       1.912395, 1.141549 1.913342, 1.137967 1.914592, 1.134479 
                       1.916138, 1.131111 1.917967, 1.127889 1.920067, 1.124837 
                       1.922422, 1.121976 1.925013, 1.119328 1.927823, 1.116912 
                       1.930830, 1.114747 1.934012, 1.112849 1.937345, 1.111231 
                       1.940805, 1.109906 1.944366, 1.108883 1.948002, 1.108170 
                       1.951686, 1.107772 1.955390, 1.107692 1.959087, 1.107931 
                       1.962751, 1.108487 1.966353, 1.109356 1.969866, 1.110531 
                       1.973266, 1.112004 1.976527, 1.113764 1.979624, 1.115798 
                       1.982535, 1.118090 1.985238, 1.120624 1.987713, 1.123381 
                       1.989943, 1.126340 1.991909, 1.129481 1.993598, 1.132778 
                       1.994998, 1.136209 1.996097, 1.139748 1.996888, 1.143367 
                       1.997365, 1.147042 1.997525, 1.150743 " style="fill:none; stroke:red; stroke-width:0.004733; cut:10"/>
    <polyline points= "2.486020, 0.786310 2.485861, 0.790011 2.485384, 0.793686 
                       2.484593, 0.797306 2.483493, 0.800844 2.482094, 0.804275 
                       2.480405, 0.807572 2.478438, 0.810713 2.476209, 0.813672 
                       2.473734, 0.816429 2.471031, 0.818963 2.468120, 0.821256 
                       2.465022, 0.823289 2.461762, 0.825049 2.458362, 0.826522 
                       2.454848, 0.827697 2.451246, 0.828566 2.447583, 0.829122 
                       2.443886, 0.829361 2.440181, 0.829281 2.436498, 0.828883 
                       2.432862, 0.828170 2.429300, 0.827147 2.425840, 0.825822 
                       2.422507, 0.824204 2.419325, 0.822306 2.416318, 0.820141 
                       2.413509, 0.817725 2.410917, 0.815077 2.408563, 0.812216 
                       2.406463, 0.809164 2.404633, 0.805942 2.403088, 0.802574 
                       2.401837, 0.799087 2.400891, 0.795504 2.400256, 0.791854 
                       2.399938, 0.788162 2.399938, 0.784457 2.400256, 0.780766 
                       2.400891, 0.777115 2.401837, 0.773533 2.403088, 0.770045 
                       2.404633, 0.766678 2.406463, 0.763456 2.408563, 0.760403 
                       2.410917, 0.757542 2.413509, 0.754894 2.416318, 0.752479 
                       2.419325, 0.750314 2.422507, 0.748415 2.425840, 0.746798 
                       2.429300, 0.745472 2.432862, 0.744449 2.436498, 0.743736 
                       2.440181, 0.743338 2.443886, 0.743259 2.447583, 0.743498 
                       2.451246, 0.744054 2.454848, 0.744922 2.458362, 0.746098 
                       2.461762, 0.747571 2.465022, 0.749330 2.468120, 0.751364 
                       2.471031, 0.753656 2.473734, 0.756190 2.476209, 0.758947 
                       2.478438, 0.761907 2.480405, 0.765047 2.482094, 0.768345 
                       2.483493, 0.771776 2.484593, 0.775314 2.485384, 0.778934 
                       2.485861, 0.782608 2.486020, 0.786310 " style="fill:none; stroke:red; stroke-width:0.004733; cut:11"/>
    <polyline points= "1.680967, 0.216809 1.680807, 0.220511 1.680330, 0.224185 
                       1.679539, 0.227805 1.678440, 0.231343 1.677040, 0.234774 
                       1.675351, 0.238072 1.673385, 0.241212 1.671156, 0.244172 
                       1.668680, 0.246929 1.665977, 0.249463 1.663066, 0.251755 
                       1.659969, 0.253788 1.656708, 0.255548 1.653309, 0.257021 
                       1.649795, 0.258196 1.646193, 0.259065 1.642530, 0.259621 
                       1.638832, 0.259860 1.635128, 0.259781 1.631444, 0.259383 
                       1.627808, 0.258670 1.624247, 0.257647 1.620787, 0.256321 
                       1.617454, 0.254703 1.614272, 0.252805 1.611265, 0.250640 
                       1.608455, 0.248225 1.605864, 0.245577 1.603509, 0.242716 
                       1.601410, 0.239663 1.599580, 0.236441 1.598034, 0.233074 
                       1.596784, 0.229586 1.595838, 0.226004 1.595203, 0.222353 
                       1.594884, 0.218662 1.594884, 0.214957 1.595203, 0.211265 
                       1.595838, 0.207615 1.596784, 0.204032 1.598034, 0.200545 
                       1.599580, 0.197177 1.601410, 0.193955 1.603509, 0.190903 
                       1.605864, 0.188042 1.608455, 0.185394 1.611265, 0.182978 
                       1.614272, 0.180813 1.617454, 0.178915 1.620787, 0.177297 
                       1.624247, 0.175972 1.627808, 0.174949 1.631444, 0.174236 
                       1.635128, 0.173838 1.638832, 0.173758 1.642530, 0.173997 
                       1.646193, 0.174553 1.649795, 0.175422 1.653309, 0.176597 
                       1.656708, 0.178070 1.659969, 0.179830 1.663066, 0.181863 
                       1.665977, 0.184156 1.668680, 0.186690 1.671156, 0.189447 
                       1.673385, 0.192406 1.675351, 0.195547 1.677040, 0.198844 
                       1.678440, 0.202275 1.679539, 0.205813 1.680330, 0.209433 
                       1.680807, 0.213107 1.680967, 0.216809 " style="fill:none; stroke:red; stroke-width:0.004733; cut:13"/>
    <polyline points= "1.607054, 0.286113 1.609289, 0.283752 1.615221, 0.285987 
                       1.621324, 0.287698 1.627554, 0.288872 1.633861, 0.289499 
                       1.640200, 0.289575 1.646521, 0.289100 1.652776, 0.288077 
                       1.658919, 0.286513 1.664903, 0.284421 1.670682, 0.281816 
                       1.676212, 0.278719 1.681452, 0.275152 1.686362, 0.271143 
                       1.690905, 0.266722 1.695046, 0.261923 1.698753, 0.256781 
                       1.702000, 0.251337 1.704760, 0.245631 1.707014, 0.239706 
                       1.708744, 0.233608 1.709936, 0.227382 1.710583, 0.221077 
                       1.710679, 0.214739 1.710223, 0.208416 1.746212, 0.190151 
                       1.783592, 0.174935 1.822107, 0.162875 1.861490, 0.154052 
                       1.901469, 0.148529 1.941769, 0.146344 1.982111, 0.147510 
                       2.022217, 0.152021 2.061810, 0.159845 2.100617, 0.170928 
                       2.138370, 0.185194 2.174810, 0.202544 2.174514, 0.208876 
                       2.174769, 0.215210 2.175575, 0.221497 2.176925, 0.227690 
                       2.178808, 0.233743 2.181211, 0.239609 2.184115, 0.245243 
                       2.187498, 0.250604 2.191334, 0.255650 2.195595, 0.260343 
                       2.200248, 0.264648 2.205258, 0.268532 2.210586, 0.271965 
                       2.216193, 0.274921 2.222036, 0.277379 2.228071, 0.279319 
                       2.234251, 0.280727 2.240531, 0.281592 2.246862, 0.281908 
                       2.253196, 0.281671 2.259486, 0.280885 2.265683, 0.279554 
                       2.271742, 0.277689 2.277615, 0.275305 2.306093, 0.303899 
                       2.332099, 0.334758 2.355455, 0.367669 2.375999, 0.402405 
                       2.393589, 0.438726 2.408104, 0.476382 2.419444, 0.515112 
                       2.427530, 0.554650 2.432307, 0.594722 2.433742, 0.635053 
                       2.431825, 0.675364 2.426568, 0.715376 2.420479, 0.717065 
                       2.414560, 0.719275 2.408854, 0.721990 2.403406, 0.725189 
                       2.398255, 0.728849 2.393441, 0.732942 2.389000, 0.737436 
                       2.384965, 0.742299 2.381368, 0.747494 2.378234, 0.752980 
                       2.375588, 0.758718 2.373449, 0.764664 2.371834, 0.770772 
                       2.370755, 0.776998 2.370219, 0.783294 2.370232, 0.789613 
                       2.370792, 0.795906 2.371896, 0.802128 2.373535, 0.808230 
                       2.375697, 0.814167 2.378366, 0.819894 2.381521, 0.825369 
                       2.385140, 0.830549 2.389193, 0.835396 2.370805, 0.871314 
                       2.349499, 0.905583 2.325422, 0.937966 2.298742, 0.968239 
                       2.269641, 0.996194 2.238321, 1.021637 2.204998, 1.044393 
                       2.169901, 1.064306 2.133273, 1.081237 2.095366, 1.095070 
                       2.056442, 1.105710 2.016769, 1.113084 2.013276, 1.107833 
                       2.009342, 1.102905 2.004996, 1.098335 2.000271, 1.094159 
                       1.995203, 1.090407 1.989828, 1.087108 1.984189, 1.084286 
                       1.978326, 1.081963 1.972285, 1.080156 1.966109, 1.078878 
                       1.959847, 1.078140 1.953543, 1.077947 1.947247, 1.078299 
                       1.941005, 1.079196 1.934864, 1.080629 1.928870, 1.082588 
                       1.923068, 1.085058 1.917501, 1.088022 1.912212, 1.091456 
                       1.907240, 1.095334 1.902622, 1.099629 1.898393, 1.104307 
                       1.894585, 1.109333 1.891226, 1.114670 1.851380, 1.108302 
                       1.812199, 1.098649 1.773955, 1.085779 1.736910, 1.069778 
                       1.701321, 1.050759 1.667433, 1.028852 1.635480, 1.004209 
                       1.605682, 0.976999 1.578245, 0.947410 1.553358, 0.915646 
                       1.531193, 0.881926 1.511902, 0.846484 1.515832, 0.841536 
                       1.519318, 0.836266 1.522334, 0.830714 1.524858, 0.824921 
                       1.526869, 0.818931 1.528354, 0.812789 1.529300, 0.806542 
                       1.529701, 0.800236 1.529554, 0.793919 1.528859, 0.787639 
                       1.527623, 0.781443 1.527224, 0.780074 1.532973, 0.792834 
                       1.546456, 0.812903 1.557332, 0.831744 1.568616, 0.849104 
                       1.580297, 0.865135 1.592362, 0.879987 1.604802, 0.893813 
                       1.630757, 0.918990 1.660717, 0.943689 1.692147, 0.965579 
                       1.724885, 0.984594 1.758770, 1.000671 1.793642, 1.013744 
                       1.829340, 1.023750 1.865702, 1.030625 1.884083, 1.032868 
                       1.902569, 1.034304 1.939742, 1.034761 1.976871, 1.032130 
                       2.013572, 1.026582 2.049457, 1.018288 2.084142, 1.007420 
                       2.117239, 0.994150 2.148362, 0.978649 2.163064, 0.970115 
                       2.177127, 0.961088 2.190513, 0.951589 2.203226, 0.941635 
                       2.215277, 0.931245 2.226680, 0.920435 2.237445, 0.909223 
                       2.247587, 0.897627 2.257117, 0.885664 2.266048, 0.873352 
                       2.282161, 0.847749 2.296028, 0.820960 2.307746, 0.793123 
                       2.317417, 0.764380 2.325126, 0.734879 2.330909, 0.704805 
                       2.334787, 0.674353 2.336784, 0.643718 2.336921, 0.613093 
                       2.335221, 0.582672 2.331706, 0.552651 2.326397, 0.523223 
                       2.319277, 0.494573 2.310168, 0.466839 2.304798, 0.453357 
                       2.298849, 0.440152 2.292293, 0.427241 2.285103, 0.414640 
                       2.277250, 0.402366 2.268709, 0.390434 2.259452, 0.378860 
                       2.249450, 0.367661 2.238677, 0.356854 2.227106, 0.346453 
                       2.214709, 0.336475 2.201458, 0.326937 2.187347, 0.317857 
                       2.172449, 0.309269 2.140667, 0.293707 2.106863, 0.280536 
                       2.071786, 0.270039 2.036186, 0.262501 2.018424, 0.259930 
                       2.000813, 0.258205 1.983447, 0.257362 1.966418, 0.257436 
                       1.949821, 0.258463 1.933751, 0.260479 1.918281, 0.263505 
                       1.903419, 0.267517 1.889151, 0.272475 1.875464, 0.278340 
                       1.862347, 0.285073 1.849787, 0.292637 1.837771, 0.300991 
                       1.826287, 0.310098 1.815321, 0.319918 1.804863, 0.330413 
                       1.794899, 0.341543 1.785416, 0.353271 1.776402, 0.365556 
                       1.767845, 0.378362 1.752050, 0.405375 1.737974, 0.433983 
                       1.725728, 0.463787 1.715469, 0.494371 1.707351, 0.525319 
                       1.701530, 0.556215 1.698160, 0.586644 1.697443, 0.601552 
                       1.697398, 0.616188 1.698042, 0.630499 1.699397, 0.644432 
                       1.701473, 0.657944 1.704252, 0.671016 1.707706, 0.683637 
                       1.711809, 0.695797 1.716534, 0.707486 1.721855, 0.718692 
                       1.727744, 0.729404 1.734174, 0.739612 1.741119, 0.749306 
                       1.748553, 0.758474 1.756447, 0.767105 1.764776, 0.775190 
                       1.773512, 0.782717 1.782629, 0.789676 1.792100, 0.796056 
                       1.801898, 0.801845 1.811995, 0.807037 1.822354, 0.811637 
                       1.832939, 0.815652 1.843711, 0.819091 1.854633, 0.821961 
                       1.865668, 0.824271 1.876779, 0.826029 1.887926, 0.827242 
                       1.899074, 0.827919 1.910184, 0.828068 1.921219, 0.827696 
                       1.932141, 0.826813 1.942914, 0.825425 1.953498, 0.823542 
                       1.963858, 0.821170 1.973954, 0.818319 1.983755, 0.814997 
                       1.993245, 0.811222 2.002413, 0.807013 2.011248, 0.802389 
                       2.019741, 0.797367 2.027879, 0.791968 2.035653, 0.786209 
                       2.043051, 0.780109 2.050063, 0.773688 2.056679, 0.766964 
                       2.062887, 0.759956 2.068676, 0.752682 2.074037, 0.745162 
                       2.078958, 0.737414 2.083429, 0.729456 2.087438, 0.721308 
                       2.090979, 0.712990 2.094060, 0.704524 2.096692, 0.695935 
                       2.098887, 0.687246 2.100657, 0.678482 2.102013, 0.669667 
                       2.102966, 0.660825 2.103529, 0.651981 2.103529, 0.634379 
                       2.102106, 0.617056 2.099352, 0.600204 2.095361, 0.584015 
                       2.092924, 0.576229 2.090175, 0.568675 2.087088, 0.561372 
                       2.083637, 0.554339 2.079796, 0.547593 2.075540, 0.541153 
                       2.070841, 0.535037 2.065675, 0.529264 2.060016, 0.523852 
                       2.053837, 0.518819 2.047113, 0.514184 2.039818, 0.509966 
                       2.031925, 0.506181 2.023410, 0.502850 2.014245, 0.499990 
                       2.004406, 0.497619 1.993901, 0.495783 1.982878, 0.494636 
                       1.971521, 0.494357 1.965775, 0.494599 1.960014, 0.495126 
                       1.954261, 0.495960 1.948539, 0.497124 1.942872, 0.498640 
                       1.937281, 0.500532 1.931791, 0.502820 1.926423, 0.505528 
                       1.921201, 0.508679 1.916147, 0.512294 1.911285, 0.516397 
                       1.906638, 0.521010 1.902229, 0.526156 1.898079, 0.531856 
                       1.894213, 0.538134 1.890653, 0.545012 1.887423, 0.552513 
                       1.884544, 0.560659 1.882041, 0.569472 1.879936, 0.578976 
                       1.878251, 0.589192 1.877010, 0.600144 1.875952, 0.624343 
                       1.876944, 0.651754 1.894345, 0.615635 1.910252, 0.587895 
                       1.917688, 0.576836 1.924802, 0.567475 1.931611, 0.559679 
                       1.938133, 0.553317 1.941292, 0.550632 1.944386, 0.548255 
                       1.947416, 0.546171 1.950385, 0.544363 1.953296, 0.542813 
                       1.956149, 0.541507 1.958949, 0.540426 1.961695, 0.539555 
                       1.964392, 0.538876 1.967041, 0.538375 1.969644, 0.538033 
                       1.972203, 0.537834 1.974720, 0.537763 1.977198, 0.537801 
                       1.982045, 0.538144 1.986757, 0.538749 1.991335, 0.539586 
                       1.995776, 0.540644 2.000077, 0.541910 2.004238, 0.543373 
                       2.008254, 0.545022 2.012123, 0.546846 2.015842, 0.548834 
                       2.019410, 0.550973 2.022824, 0.553252 2.026081, 0.555661 
                       2.029178, 0.558187 2.032113, 0.560820 2.034884, 0.563548 
                       2.037488, 0.566359 2.039922, 0.569242 2.042185, 0.572187 
                       2.044279, 0.575191 2.046207, 0.578250 2.047973, 0.581362 
                       2.049579, 0.584525 2.051029, 0.587737 2.052326, 0.590993 
                       2.053473, 0.594293 2.055330, 0.601011 2.056625, 0.607871 
                       2.057383, 0.614853 2.057630, 0.621936 2.057392, 0.629099 
                       2.056692, 0.636324 2.055558, 0.643589 2.054013, 0.650874 
                       2.052084, 0.658159 2.049795, 0.665424 2.044241, 0.679812 
                       2.041015, 0.686890 2.037465, 0.693836 2.033551, 0.700600 
                       2.029232, 0.707131 2.024467, 0.713379 2.019217, 0.719292 
                       2.013440, 0.724821 2.010341, 0.727425 2.007096, 0.729915 
                       2.003700, 0.732284 2.000156, 0.734533 1.992634, 0.738681 
                       1.984555, 0.742374 1.975944, 0.745626 1.966828, 0.748452 
                       1.957230, 0.750869 1.936694, 0.754534 1.914653, 0.756606 
                       1.903303, 0.756880 1.891882, 0.756531 1.880502, 0.755474 
                       1.869274, 0.753623 1.858309, 0.750890 1.852960, 0.749167 
                       1.847719, 0.747191 1.842598, 0.744957 1.837608, 0.742474 
                       1.832757, 0.739758 1.828053, 0.736825 1.823507, 0.733690 
                       1.819127, 0.730367 1.814921, 0.726872 1.810898, 0.723220 
                       1.803439, 0.715506 1.800020, 0.711475 1.796820, 0.707347 
                       1.793848, 0.703138 1.791113, 0.698864 1.788623, 0.694539 
                       1.786387, 0.690178 1.784411, 0.685794 1.782687, 0.681381 
                       1.781203, 0.676934 1.779949, 0.672443 1.778912, 0.667901 
                       1.778081, 0.663302 1.776993, 0.653897 1.776593, 0.644169 
                       1.776790, 0.634056 1.778612, 0.612433 1.781926, 0.588651 
                       1.786981, 0.562763 1.794222, 0.534931 1.804095, 0.505318 
                       1.816979, 0.474409 1.824587, 0.459005 1.832980, 0.443986 
                       1.842162, 0.429615 1.852139, 0.416154 1.857428, 0.409848 
                       1.862916, 0.403868 1.868606, 0.398248 1.874498, 0.393020 
                       1.880589, 0.388210 1.886869, 0.383814 1.893322, 0.379822 
                       1.899934, 0.376222 1.906690, 0.373005 1.913575, 0.370160 
                       1.920576, 0.367674 1.927678, 0.365539 1.934865, 0.363743 
                       1.942124, 0.362275 1.956798, 0.360282 1.971584, 0.359473 
                       1.986364, 0.359762 2.001037, 0.361071 2.015559, 0.363346 
                       2.029898, 0.366542 2.044025, 0.370614 2.057909, 0.375516 
                       2.071519, 0.381203 2.084826, 0.387629 2.097799, 0.394748 
                       2.110402, 0.402513 2.122580, 0.410870 2.134272, 0.419764 
                       2.145417, 0.429139 2.155955, 0.438939 2.165825, 0.449108 
                       2.174966, 0.459592 2.183318, 0.470333 2.190831, 0.481279 
                       2.197507, 0.492384 2.203356, 0.503606 2.208392, 0.514902 
                       2.212627, 0.526228 2.216072, 0.537541 2.218741, 0.548799 
                       2.220645, 0.559959 2.221810, 0.570985 2.222311, 0.581871 
                       2.222236, 0.592620 2.221673, 0.603234 2.219439, 0.624065 
                       2.216313, 0.644379 2.208405, 0.684375 2.202552, 0.705260 
                       2.194567, 0.727608 2.183928, 0.751783 2.170607, 0.776984 
                       2.154706, 0.802119 2.145818, 0.814321 2.136322, 0.826096 
                       2.126227, 0.837326 2.115526, 0.847959 2.104210, 0.857961 
                       2.092270, 0.867298 2.079695, 0.875936 2.066475, 0.883840 
                       2.052602, 0.890977 2.038066, 0.897313 2.022873, 0.902820 
                       2.007097, 0.907506 1.990829, 0.911382 1.974158, 0.914464 
                       1.957175, 0.916764 1.939971, 0.918296 1.905260, 0.919109 
                       1.887927, 0.918401 1.870698, 0.916873 1.853628, 0.914436 
                       1.836771, 0.910997 1.820182, 0.906466 1.803915, 0.900751 
                       1.788025, 0.893761 1.772566, 0.885404 1.757596, 0.875629 
                       1.743189, 0.864538 1.729419, 0.852272 1.716362, 0.838973 
                       1.704096, 0.824784 1.692695, 0.809846 1.682235, 0.794301 
                       1.672793, 0.778289 1.664412, 0.761937 1.657008, 0.745302 
                       1.644664, 0.711342 1.634832, 0.676735 1.626578, 0.641804 
                       1.613215, 0.569971 1.609176, 0.530562 1.607790, 0.486962 
                       1.609988, 0.350226 1.607054, 0.286113 " style="fill:none; stroke:red; stroke-width:0.004733; cut:16"/>
    <polyline points= "2.093142, 1.173021 2.055366, 1.181774 2.017074, 1.187893 
                       2.013685, 1.193087 2.009866, 1.197974 2.005645, 1.202519 
                       2.001052, 1.206687 1.996121, 1.210450 1.990888, 1.213779 
                       1.985390, 1.216650 1.979668, 1.219044 1.973763, 1.220941 
                       1.967718, 1.222329 1.961577, 1.223197 1.955384, 1.223540 
                       1.949184, 1.223354 1.943023, 1.222641 1.936944, 1.221406 
                       1.930993, 1.219659 1.925212, 1.217411 1.919644, 1.214679 
                       1.914328, 1.211483 1.909304, 1.207847 1.904607, 1.203796 
                       1.900272, 1.199359 1.896331, 1.194570 1.892811, 1.189463 
                       1.852742, 1.184035 1.813169, 1.175730 1.951626, 1.350349 
                       2.093142, 1.173021 " style="fill:none; stroke:red; stroke-width:0.004733; cut:18"/>
    <polyline points= "1.499974, 0.798773 1.499815, 0.802474 1.499338, 0.806149 
                       1.498547, 0.809768 1.497447, 0.813307 1.496048, 0.816737 
                       1.494359, 0.820035 1.492392, 0.823175 1.490163, 0.826135 
                       1.487688, 0.828892 1.484985, 0.831426 1.482074, 0.833718 
                       1.478976, 0.835752 1.475716, 0.837512 1.472316, 0.838985 
                       1.468802, 0.840160 1.465200, 0.841029 1.461537, 0.841585 
                       1.457840, 0.841824 1.454135, 0.841744 1.450452, 0.841346 
                       1.446816, 0.840633 1.443255, 0.839610 1.439795, 0.838285 
                       1.436461, 0.836667 1.433279, 0.834768 1.430272, 0.832604 
                       1.427463, 0.830188 1.424871, 0.827540 1.422517, 0.824679 
                       1.420417, 0.821626 1.418588, 0.818404 1.417042, 0.815037 
                       1.415791, 0.811549 1.414845, 0.807967 1.414210, 0.804317 
                       1.413892, 0.800625 1.413892, 0.796920 1.414210, 0.793229 
                       1.414845, 0.789578 1.415791, 0.785996 1.417042, 0.782508 
                       1.418588, 0.779141 1.420417, 0.775919 1.422517, 0.772866 
                       1.424871, 0.770005 1.427463, 0.767357 1.430272, 0.764942 
                       1.433279, 0.762777 1.436461, 0.760878 1.439795, 0.759260 
                       1.443255, 0.757935 1.446816, 0.756912 1.450452, 0.756199 
                       1.454135, 0.755801 1.457840, 0.755721 1.461537, 0.755960 
                       1.465200, 0.756516 1.468802, 0.757385 1.472316, 0.758560 
                       1.475716, 0.760033 1.478976, 0.761793 1.482074, 0.763827 
                       1.484985, 0.766119 1.487688, 0.768653 1.490163, 0.771410 
                       1.492392, 0.774370 1.494359, 0.777510 1.496048, 0.780808 
                       1.497447, 0.784238 1.498547, 0.787777 1.499338, 0.791396 
                       1.499815, 0.795071 1.499974, 0.798773 " style="fill:none; stroke:red; stroke-width:0.004733; cut:19"/>
    <polyline points= "1.519301, 0.761383 1.517504, 0.758412 1.513776, 0.753310 
                       1.509620, 0.748551 1.505067, 0.744170 1.500151, 0.740200 
                       1.494909, 0.736672 1.489381, 0.733611 1.483609, 0.731041 
                       1.477635, 0.728982 1.471506, 0.727448 1.465240, 0.687581 
                       1.462305, 0.647331 1.462720, 0.606977 1.466482, 0.566797 
                       1.468766, 0.551745 1.482679, 0.626852 1.498582, 0.691195 
                       1.513359, 0.746388 1.519301, 0.761383 " style="fill:none; stroke:red; stroke-width:0.004733; cut:24"/>
    <polyline points= "2.290377, 0.209107 2.290217, 0.212808 2.289740, 0.216483 
                       2.288949, 0.220102 2.287850, 0.223641 2.286450, 0.227072 
                       2.284761, 0.230369 2.282795, 0.233509 2.280566, 0.236469 
                       2.278090, 0.239226 2.275387, 0.241760 2.272476, 0.244052 
                       2.269379, 0.246086 2.266118, 0.247846 2.262718, 0.249319 
                       2.259205, 0.250494 2.255603, 0.251363 2.251940, 0.251919 
                       2.248242, 0.252158 2.244538, 0.252078 2.240854, 0.251680 
                       2.237218, 0.250967 2.233657, 0.249944 2.230197, 0.248619 
                       2.226864, 0.247001 2.223682, 0.245103 2.220675, 0.242938 
                       2.217865, 0.240522 2.215274, 0.237874 2.212919, 0.235013 
                       2.210820, 0.231961 2.208990, 0.228739 2.207444, 0.225371 
                       2.206194, 0.221883 2.205248, 0.218301 2.204613, 0.214651 
                       2.204294, 0.210959 2.204294, 0.207254 2.204613, 0.203563 
                       2.205248, 0.199912 2.206194, 0.196330 2.207444, 0.192842 
                       2.208990, 0.189475 2.210820, 0.186253 2.212919, 0.183200 
                       2.215274, 0.180339 2.217865, 0.177691 2.220675, 0.175276 
                       2.223682, 0.173111 2.226864, 0.171212 2.230197, 0.169595 
                       2.233657, 0.168269 2.237218, 0.167246 2.240854, 0.166533 
                       2.244538, 0.166135 2.248242, 0.166056 2.251940, 0.166295 
                       2.255603, 0.166851 2.259205, 0.167719 2.262718, 0.168895 
                       2.266118, 0.170368 2.269379, 0.172127 2.272476, 0.174161 
                       2.275387, 0.176453 2.278090, 0.178987 2.280566, 0.181744 
                       2.282795, 0.184704 2.284761, 0.187844 2.286450, 0.191142 
                       2.287850, 0.194573 2.288949, 0.198111 2.289740, 0.201731 
                       2.290217, 0.205405 2.290377, 0.209107 " style="fill:none; stroke:red; stroke-width:0.004733; cut:30"/>
  </g>
  <g style="part:2">
    <polyline points= "2.960021, 1.157099 2.920338, 1.134376 2.882641, 1.108490 
                       2.847181, 1.079616 2.814196, 1.047945 2.783904, 1.013688 
                       2.756508, 0.977075 2.732191, 0.938348 2.711114, 0.897766 
                       2.705143, 0.896140 2.699333, 0.894013 2.693723, 0.891400 
                       2.688357, 0.888320 2.683270, 0.884796 2.678502, 0.880852 
                       2.674086, 0.876518 2.670053, 0.871825 2.666434, 0.866806 
                       2.663254, 0.861497 2.660537, 0.855938 2.658301, 0.850168 
                       2.656563, 0.844230 2.655336, 0.838165 2.654628, 0.832017 
                       2.654445, 0.825832 2.654788, 0.819654 2.655654, 0.813527 
                       2.657038, 0.807496 2.658928, 0.801604 2.661312, 0.795894 
                       2.664172, 0.790407 2.667488, 0.785182 2.671236, 0.780258 
                       2.662922, 0.732691 2.658737, 0.684584 2.658712, 0.636295 
                       2.662847, 0.588184 2.671110, 0.540608 2.683442, 0.493920 
                       2.699749, 0.448468 2.719912, 0.404590 2.743779, 0.362612 
                       2.771173, 0.322846 2.801892, 0.285588 2.835705, 0.251115 
                       2.835432, 0.244957 2.835680, 0.238798 2.836449, 0.232682 
                       2.837732, 0.226653 2.839521, 0.220754 2.841802, 0.215027 
                       2.844560, 0.209514 2.847773, 0.204254 2.851421, 0.199285 
                       2.855476, 0.194642 2.859908, 0.190359 2.864688, 0.186466 
                       2.869779, 0.182991 2.875146, 0.179960 2.880751, 0.177393 
                       2.886552, 0.175310 2.892509, 0.173725 2.898579, 0.172650 
                       2.904718, 0.172092 2.910882, 0.172055 2.917027, 0.172539 
                       2.923109, 0.173542 2.929084, 0.175056 2.934910, 0.177070 
                       2.977602, 0.154447 3.022085, 0.135588 3.068029, 0.120633 
                       3.115090, 0.109694 3.162919, 0.102852 3.211160, 0.100158 
                       3.259453, 0.101632 3.307440, 0.107263 3.354762, 0.117009 
                       3.401069, 0.130798 3.446015, 0.148526 3.489265, 0.170063 
                       3.495038, 0.167903 3.500973, 0.166238 3.507028, 0.165082 
                       3.513159, 0.164442 3.519322, 0.164323 3.525473, 0.164726 
                       3.531568, 0.165648 3.537563, 0.167082 3.543415, 0.169018 
                       3.549082, 0.171442 3.554524, 0.174337 3.559702, 0.177682 
                       3.564578, 0.181452 3.569118, 0.185622 3.573289, 0.190161 
                       3.577061, 0.195037 3.580406, 0.200214 3.583302, 0.205655 
                       3.585728, 0.211322 3.587665, 0.217174 3.589100, 0.223169 
                       3.590023, 0.229263 3.590427, 0.235414 3.590309, 0.241577 
                       3.624983, 0.275185 3.656634, 0.311655 3.685025, 0.350716 
                       3.709945, 0.392077 3.731210, 0.435432 3.748661, 0.480457 
                       3.762168, 0.526818 3.771632, 0.574170 3.776981, 0.622161 
                       3.778176, 0.670435 3.775209, 0.718632 3.768100, 0.766395 
                       3.771971, 0.771223 3.775418, 0.776361 3.778416, 0.781774 
                       3.780943, 0.787423 3.782982, 0.793265 3.784517, 0.799259 
                       3.785538, 0.805362 3.786037, 0.811530 3.786010, 0.817718 
                       3.785458, 0.823881 3.784385, 0.829975 3.782798, 0.835956 
                       3.780708, 0.841780 3.778132, 0.847406 3.775087, 0.852793 
                       3.771596, 0.857902 3.767684, 0.862696 3.763379, 0.867140 
                       3.758711, 0.871203 3.753716, 0.874855 3.748429, 0.878069 
                       3.742887, 0.880823 3.737132, 0.883096 3.731205, 0.884873 
                       3.712403, 0.923657 3.690675, 0.960879 3.666148, 0.996321 
                       3.638969, 1.029772 3.609297, 1.061033 3.577309, 1.089920 
                       3.543194, 1.116261 3.507155, 1.139901 3.516493, 1.148171 
                       3.221954, 1.483571 2.948759, 1.167073 2.960021, 1.157099 
                       " style="fill:none; stroke:blue; stroke-width:0.004733; outline:2"/>
    <polyline points= "3.640414, 0.571066 3.613481, 0.608733 3.586780, 0.611843 
                       3.555684, 0.576516 3.504458, 0.535904 3.460524, 0.555154 
                       3.411721, 0.625001 " style="fill:none; stroke:red; stroke-width:0.004733; cut:0"/>
    <polyline points= "3.507307, 0.339970 3.507658, 0.386274 3.487885, 0.404484 
                       3.441962, 0.394182 3.376648, 0.391436 3.352420, 0.432834 
                       3.353993, 0.518027 " style="fill:none; stroke:red; stroke-width:0.004733; cut:1"/>
    <polyline points= "3.263786, 0.231247 3.291288, 0.268502 3.285994, 0.294856 
                       3.242787, 0.313514 3.188333, 0.349684 3.193064, 0.397416 
                       3.244412, 0.465414 " style="fill:none; stroke:red; stroke-width:0.004733; cut:2"/>
    <polyline points= "3.002868, 0.286427 3.047015, 0.300401 3.058223, 0.324834 
                       3.034235, 0.365326 3.011440, 0.426594 3.043325, 0.462430 
                       3.124834, 0.487260 " style="fill:none; stroke:red; stroke-width:0.004733; cut:3"/>
    <polyline points= "2.824215, 0.484432 2.868145, 0.469788 2.891574, 0.482967 
                       2.895967, 0.529825 2.913539, 0.592791 2.960397, 0.603041 
                       3.040934, 0.575219 " style="fill:none; stroke:red; stroke-width:0.004733; cut:4"/>
    <polyline points= "2.796066, 0.749631 2.822999, 0.711963 2.849700, 0.708853 
                       2.880796, 0.744180 2.932022, 0.784792 2.975956, 0.765542 
                       3.024759, 0.695695 " style="fill:none; stroke:red; stroke-width:0.004733; cut:5"/>
    <polyline points= "2.929173, 0.980727 2.928821, 0.934422 2.948595, 0.916212 
                       2.994518, 0.926514 3.059831, 0.929260 3.084060, 0.887863 
                       3.082487, 0.802670 " style="fill:none; stroke:red; stroke-width:0.004733; cut:6"/>
    <polyline points= "3.172694, 1.089449 3.145192, 1.052195 3.150486, 1.025840 
                       3.193693, 1.007182 3.248147, 0.971013 3.243416, 0.923280 
                       3.192068, 0.855282 " style="fill:none; stroke:red; stroke-width:0.004733; cut:7"/>
    <polyline points= "3.433611, 1.034270 3.389465, 1.020295 3.378256, 0.995862 
                       3.402245, 0.955371 3.425039, 0.894102 3.393155, 0.858267 
                       3.311646, 0.833436 " style="fill:none; stroke:red; stroke-width:0.004733; cut:8"/>
    <polyline points= "3.612265, 0.836265 3.568335, 0.850908 3.544906, 0.837729 
                       3.540513, 0.790871 3.522941, 0.727905 3.476083, 0.717655 
                       3.395546, 0.745477 " style="fill:none; stroke:red; stroke-width:0.004733; cut:9"/>
    <polyline points= "2.951295, 0.244809 2.951136, 0.248511 2.950659, 0.252185 
                       2.949868, 0.255805 2.948768, 0.259343 2.947369, 0.262774 
                       2.945680, 0.266071 2.943713, 0.269212 2.941484, 0.272171 
                       2.939009, 0.274928 2.936306, 0.277462 2.933395, 0.279755 
                       2.930298, 0.281788 2.927037, 0.283548 2.923637, 0.285021 
                       2.920123, 0.286196 2.916521, 0.287065 2.912858, 0.287621 
                       2.909161, 0.287860 2.905456, 0.287780 2.901773, 0.287383 
                       2.898137, 0.286669 2.894576, 0.285646 2.891116, 0.284321 
                       2.887782, 0.282703 2.884600, 0.280805 2.881594, 0.278640 
                       2.878784, 0.276225 2.876192, 0.273577 2.873838, 0.270716 
                       2.871738, 0.267663 2.869909, 0.264441 2.868363, 0.261073 
                       2.867112, 0.257586 2.866166, 0.254003 2.865532, 0.250353 
                       2.865213, 0.246662 2.865213, 0.242956 2.865532, 0.239265 
                       2.866166, 0.235615 2.867112, 0.232032 2.868363, 0.228544 
                       2.869909, 0.225177 2.871738, 0.221955 2.873838, 0.218902 
                       2.876192, 0.216041 2.878784, 0.213393 2.881594, 0.210978 
                       2.884600, 0.208813 2.887782, 0.206915 2.891116, 0.205297 
                       2.894576, 0.203971 2.898137, 0.202948 2.901773, 0.202235 
                       2.905456, 0.201838 2.909161, 0.201758 2.912858, 0.201997 
                       2.916521, 0.202553 2.920123, 0.203422 2.923637, 0.204597 
                       2.927037, 0.206070 2.930298, 0.207830 2.933395, 0.209863 
                       2.936306, 0.212155 2.939009, 0.214690 2.941484, 0.217447 
                       2.943713, 0.220406 2.945680, 0.223546 2.947369, 0.226844 
                       2.948768, 0.230275 2.949868, 0.233813 2.950659, 0.237433 
                       2.951136, 0.241107 2.951295, 0.244809 " style="fill:none; stroke:red; stroke-width:0.004733; cut:14"/>
    <polyline points= "3.267853, 1.178743 3.267694, 1.182445 3.267217, 1.186119 
                       3.266426, 1.189739 3.265326, 1.193277 3.263927, 1.196708 
                       3.262238, 1.200006 3.260271, 1.203146 3.258042, 1.206106 
                       3.255567, 1.208863 3.252864, 1.211397 3.249953, 1.213689 
                       3.246855, 1.215722 3.243595, 1.217482 3.240195, 1.218955 
                       3.236681, 1.220130 3.233079, 1.220999 3.229416, 1.221555 
                       3.225719, 1.221794 3.222014, 1.221715 3.218330, 1.221317 
                       3.214695, 1.220604 3.211133, 1.219581 3.207673, 1.218255 
                       3.204340, 1.216637 3.201158, 1.214739 3.198151, 1.212574 
                       3.195342, 1.210159 3.192750, 1.207511 3.190396, 1.204650 
                       3.188296, 1.201597 3.186466, 1.198375 3.184921, 1.195008 
                       3.183670, 1.191520 3.182724, 1.187938 3.182089, 1.184287 
                       3.181771, 1.180596 3.181771, 1.176891 3.182089, 1.173199 
                       3.182724, 1.169549 3.183670, 1.165966 3.184921, 1.162479 
                       3.186466, 1.159111 3.188296, 1.155889 3.190396, 1.152837 
                       3.192750, 1.149976 3.195342, 1.147328 3.198151, 1.144912 
                       3.201158, 1.142747 3.204340, 1.140849 3.207673, 1.139231 
                       3.211133, 1.137906 3.214695, 1.136883 3.218330, 1.136170 
                       3.222014, 1.135772 3.225719, 1.135692 3.229416, 1.135931 
                       3.233079, 1.136487 3.236681, 1.137356 3.240195, 1.138531 
                       3.243595, 1.140004 3.246855, 1.141764 3.249953, 1.143797 
                       3.252864, 1.146090 3.255567, 1.148624 3.258042, 1.151381 
                       3.260271, 1.154340 3.262238, 1.157481 3.263927, 1.160778 
                       3.265326, 1.164209 3.266426, 1.167747 3.267217, 1.171367 
                       3.267694, 1.175041 3.267853, 1.178743 " style="fill:none; stroke:red; stroke-width:0.004733; cut:15"/>
    <polyline points= "3.560705, 0.237107 3.560546, 0.240808 3.560069, 0.244483 
                       3.559278, 0.248102 3.558178, 0.251641 3.556779, 0.255071 
                       3.555090, 0.258369 3.553123, 0.261509 3.550894, 0.264469 
                       3.548419, 0.267226 3.545716, 0.269760 3.542805, 0.272052 
                       3.539707, 0.274086 3.536447, 0.275846 3.533047, 0.277319 
                       3.529533, 0.278494 3.525931, 0.279363 3.522268, 0.279919 
                       3.518571, 0.280158 3.514866, 0.280078 3.511183, 0.279680 
                       3.507547, 0.278967 3.503986, 0.277944 3.500526, 0.276619 
                       3.497192, 0.275001 3.494010, 0.273102 3.491003, 0.270937 
                       3.488194, 0.268522 3.485602, 0.265874 3.483248, 0.263013 
                       3.481148, 0.259960 3.479319, 0.256738 3.477773, 0.253371 
                       3.476522, 0.249883 3.475576, 0.246301 3.474941, 0.242651 
                       3.474623, 0.238959 3.474623, 0.235254 3.474941, 0.231562 
                       3.475576, 0.227912 3.476522, 0.224330 3.477773, 0.220842 
                       3.479319, 0.217475 3.481148, 0.214253 3.483248, 0.211200 
                       3.485602, 0.208339 3.488194, 0.205691 3.491003, 0.203276 
                       3.494010, 0.201111 3.497192, 0.199212 3.500526, 0.197594 
                       3.503986, 0.196269 3.507547, 0.195246 3.511183, 0.194533 
                       3.514866, 0.194135 3.518571, 0.194055 3.522268, 0.194294 
                       3.525931, 0.194850 3.529533, 0.195719 3.533047, 0.196894 
                       3.536447, 0.198367 3.539707, 0.200127 3.542805, 0.202161 
                       3.545716, 0.204453 3.548419, 0.206987 3.550894, 0.209744 
                       3.553123, 0.212704 3.555090, 0.215844 3.556779, 0.219142 
                       3.558178, 0.222572 3.559278, 0.226111 3.560069, 0.229730 
                       3.560546, 0.233405 3.560705, 0.237107 " style="fill:none; stroke:red; stroke-width:0.004733; cut:21"/>
    <polyline points= "2.770303, 0.826772 2.770143, 0.830474 2.769666, 0.834148 
                       2.768875, 0.837768 2.767776, 0.841307 2.766376, 0.844737 
                       2.764687, 0.848035 2.762721, 0.851175 2.760492, 0.854135 
                       2.758016, 0.856892 2.755313, 0.859426 2.752402, 0.861718 
                       2.749305, 0.863752 2.746044, 0.865512 2.742645, 0.866984 
                       2.739131, 0.868160 2.735529, 0.869029 2.731866, 0.869585 
                       2.728168, 0.869824 2.724464, 0.869744 2.720780, 0.869346 
                       2.717144, 0.868633 2.713583, 0.867610 2.710123, 0.866285 
                       2.706790, 0.864667 2.703608, 0.862768 2.700601, 0.860603 
                       2.697791, 0.858188 2.695200, 0.855540 2.692845, 0.852679 
                       2.690746, 0.849626 2.688916, 0.846404 2.687370, 0.843037 
                       2.686120, 0.839549 2.685174, 0.835967 2.684539, 0.832316 
                       2.684220, 0.828625 2.684220, 0.824920 2.684539, 0.821228 
                       2.685174, 0.817578 2.686120, 0.813996 2.687370, 0.810508 
                       2.688916, 0.807141 2.690746, 0.803919 2.692845, 0.800866 
                       2.695200, 0.798005 2.697791, 0.795357 2.700601, 0.792941 
                       2.703608, 0.790777 2.706790, 0.788878 2.710123, 0.787260 
                       2.713583, 0.785935 2.717144, 0.784912 2.720780, 0.784199 
                       2.724464, 0.783801 2.728168, 0.783721 2.731866, 0.783960 
                       2.735529, 0.784516 2.739131, 0.785385 2.742645, 0.786560 
                       2.746044, 0.788033 2.749305, 0.789793 2.752402, 0.791827 
                       2.755313, 0.794119 2.758016, 0.796653 2.760492, 0.799410 
                       2.762721, 0.802370 2.764687, 0.805510 2.766376, 0.808808 
                       2.767776, 0.812238 2.768875, 0.815777 2.769666, 0.819396 
                       2.770143, 0.823071 2.770303, 0.826772 " style="fill:none; stroke:red; stroke-width:0.004733; cut:22"/>
    <polyline points= "3.756349, 0.814310 3.756189, 0.818011 3.755712, 0.821686 
                       3.754921, 0.825305 3.753822, 0.828844 3.752422, 0.832274 
                       3.750733, 0.835572 3.748767, 0.838712 3.746538, 0.841672 
                       3.744062, 0.844429 3.741359, 0.846963 3.738448, 0.849255 
                       3.735351, 0.851289 3.732090, 0.853049 3.728691, 0.854522 
                       3.725177, 0.855697 3.721575, 0.856566 3.717912, 0.857122 
                       3.714214, 0.857361 3.710510, 0.857281 3.706826, 0.856883 
                       3.703190, 0.856170 3.699629, 0.855147 3.696169, 0.853822 
                       3.692836, 0.852204 3.689654, 0.850305 3.686647, 0.848141 
                       3.683837, 0.845725 3.681246, 0.843077 3.678891, 0.840216 
                       3.676792, 0.837163 3.674962, 0.833941 3.673416, 0.830574 
                       3.672166, 0.827086 3.671220, 0.823504 3.670585, 0.819854 
                       3.670266, 0.816162 3.670266, 0.812457 3.670585, 0.808766 
                       3.671220, 0.805115 3.672166, 0.801533 3.673416, 0.798045 
                       3.674962, 0.794678 3.676792, 0.791456 3.678891, 0.788403 
                       3.681246, 0.785542 3.683837, 0.782894 3.686647, 0.780479 
                       3.689654, 0.778314 3.692836, 0.776415 3.696169, 0.774797 
                       3.699629, 0.773472 3.703190, 0.772449 3.706826, 0.771736 
                       3.710510, 0.771338 3.714214, 0.771258 3.717912, 0.771497 
                       3.721575, 0.772053 3.725177, 0.772922 3.728691, 0.774098 
                       3.732090, 0.775570 3.735351, 0.777330 3.738448, 0.779364 
                       3.741359, 0.781656 3.744062, 0.784190 3.746538, 0.786947 
                       3.748767, 0.789907 3.750733, 0.793047 3.752422, 0.796345 
                       3.753822, 0.799775 3.754921, 0.803314 3.755712, 0.806934 
                       3.756189, 0.810608 3.756349, 0.814310 " style="fill:none; stroke:red; stroke-width:0.004733; cut:23"/>
    <polyline points= "3.363470, 1.201021 3.325694, 1.209774 3.287403, 1.215892 
                       3.284014, 1.221087 3.280195, 1.225974 3.275973, 1.230518 
                       3.271381, 1.234687 3.266450, 1.238449 3.261216, 1.241779 
                       3.255719, 1.244650 3.249997, 1.247043 3.244092, 1.248941 
                       3.238046, 1.250329 3.231905, 1.251197 3.225712, 1.251540 
                       3.219512, 1.251354 3.213351, 1.250641 3.207273, 1.249406 
                       3.201322, 1.247659 3.195541, 1.245411 3.189973, 1.242679 
                       3.184657, 1.239483 3.179632, 1.235847 3.174936, 1.231795 
                       3.170601, 1.227359 3.166660, 1.222570 3.163140, 1.217463 
                       3.123071, 1.212035 3.083497, 1.203729 3.221954, 1.378348 
                       3.363470, 1.201021 " style="fill:none; stroke:red; stroke-width:0.004733; cut:29"/>
  </g>
 </g>
</svg>
